# xmcd CD database file
#
# Track frame offsets:
#	150
#	36110
#	62342
#	93115
#	115837
#	132085
#	167209
#	203558
#	240243
#	287194
#
# Disc length: 4340 seconds
#
# Revision: 0
# Processed by: cddbd v1.5.2PL0 Copyright (c) Steve Scherf et al.
# Submitted via: CDex 1.70beta2
#
DISCID=7b10f20a
DTITLE=Gary Kavanagh - Bobby Wellins Quintet - Joy Spring
DYEAR=2008
DGENRE=Jazz
TTITLE0=Joy Spring
TTITLE1=Blues Walk
TTITLE2=Valse Hot
TTITLE3=If I Love Again
TTITLE4=I Remember Clifford
TTITLE5=Parisien Thoroughfare
TTITLE6=Sunset Eyes
TTITLE7=Jordu
TTITLE8=Salute To The Bandbox 
TTITLE9=CUCB
EXTD=YEAR: 2008
EXTT0=
EXTT1=
EXTT2=
EXTT3=
EXTT4=
EXTT5=
EXTT6=
EXTT7=
EXTT8=
EXTT9=
PLAYORDER=
